<?xml version="1.0" encoding="utf-8"?>
<!-- Generator: Adobe Illustrator 22.1.0, SVG Export Plug-In . SVG Version: 6.00 Build 0)  -->
<svg version="1.1" id="Layer_1" xmlns="http://www.w3.org/2000/svg" xmlns:xlink="http://www.w3.org/1999/xlink" x="0px" y="0px"
	 viewBox="0 0 153 68" style="enable-background:new 0 0 153 68;" xml:space="preserve">
<style type="text/css">
	.st0{fill:#1F2555;}
	.st1{fill:#00A6A7;}
</style>
<title>Logo</title>
<desc>Created with Sketch.</desc>
<g id="Symbols">
	<g id="Logo">
		<g id="pega_logo_horizontal_positive_rgb">
			<path id="Fill-1" class="st0" d="M136.4,17.1l-0.2-0.1c0,0-2.2-1-3.9,0.8L132,18l3.5,1.7L136.4,17.1z M152.4,36.4
				c0,0-1.5,2.7-2.2,3.8c-0.7,1-2.8,1.7-4.7,0.8c-0.9-0.4-8.8-5.1-11.9-4.8c-15.4,1.3-19.6-5-20.1-5.6c-0.5-0.6-1.4-0.3-0.8,0.8
				c3.4,5.8,13.4,8.5,13.4,8.5c2.6,6.3,2.9,10.7,2.9,10.7c-2.6-2-5.4-3.7-8.4-5.1c-7.9-5.3-20.4-11.9-37.5-16.1
				c1-13.6,7.8-33.2,39.9-28.6c0,0,6.4,1.1,10.7,4c0,0-1,1.1-2.4,2.4c-1.4,1.3,0.1,2.2,0.1,2.2l6.8,5.3c0.1,2.8,0.2,3.6,2.3,6.2
				c2.1,2.5,10.4,11.2,11.4,12.3C153.3,34.6,152.4,36.4,152.4,36.4z M78.6,9.9c-1.7,7-1.6,13.1-0.7,18.3c-1.6-0.3-3.2-0.6-4.9-0.9
				c-35.1-5.7-45.7,11.6-41.6,25.6C19.9,57.3,9,62.3,0.2,67.2C14,34.1,43.9,5.1,69.1,1.3C77.4,0.2,79.7,5.5,78.6,9.9L78.6,9.9z"/>
			<path id="Fill-2" class="st1" d="M83.5,40.1c13.7-1.1,26.6,0.3,37.2,5.4c-7.9-5.3-20.4-11.9-37.5-16.1
				C82.9,34.1,83.2,38.1,83.5,40.1z M81.5,40.3c-15.3,1.5-33.4,6.4-50.1,12.7c-4.1-14,6.5-31.3,41.6-25.6c1.7,0.3,3.3,0.6,4.9,0.9
				C78.8,33.2,80.3,37.2,81.5,40.3L81.5,40.3z"/>
		</g>
	</g>
</g>
</svg>